<?xml version="1.0" standalone="no"?>
<!DOCTYPE svg PUBLIC "-//W3C//DTD SVG 20010904//EN"
 "http://www.w3.org/TR/2001/REC-SVG-20010904/DTD/svg10.dtd">
<svg version="1.0" xmlns="http://www.w3.org/2000/svg"
 width="900.000000pt" height="1200.000000pt" viewBox="0 0 900.000000 1200.000000"
 preserveAspectRatio="xMidYMid meet">

<g transform="translate(0.000000,1200.000000) scale(0.100000,-0.100000)"
fill="#000000" stroke="none">
<path d="M8000 9505 l0 -2500 -503 -503 -502 -502 -2000 0 -2000 0 -498 -498
-497 -497 0 -2003 0 -2002 -1002 0 -1003 0 500 -500 500 -500 1002 0 1003 0 0
1998 0 1997 503 503 502 502 2000 0 2000 0 498 498 497 497 0 2505 0 2505
-500 500 -500 500 0 -2500z"/>
<path d="M2497 10502 l-497 -497 0 -1005 0 -1005 500 -500 500 -500 0 1000 0
1000 503 503 502 502 1500 0 1500 0 -500 500 -500 500 -1505 0 -1505 0 -498
-498z"/>
</g>
</svg>
